<?xml version="1.0" encoding="utf-8"?>
<!-- Generator: Adobe Illustrator 25.0.0, SVG Export Plug-In . SVG Version: 6.00 Build 0)  -->
<svg version="1.1" id="Layer_1" xmlns="http://www.w3.org/2000/svg" xmlns:xlink="http://www.w3.org/1999/xlink" x="0px" y="0px"
	 viewBox="0 0 12 12" style="enable-background:new 0 0 12 12;" xml:space="preserve">
<style type="text/css">
	.st0{fill:#FFFFFF;}
</style>
<path class="st0" d="M3.7,2.7c0.3,0,0.6,0,0.9,0.1c0.3,0,0.5,0.1,0.7,0.3c0.2,0.1,0.3,0.3,0.4,0.5c0.1,0.2,0.1,0.5,0.1,0.8
	c0,0.3-0.1,0.6-0.2,0.9C5.5,5.4,5.2,5.6,5,5.8c0.4,0.1,0.7,0.3,0.9,0.6c0.2,0.3,0.3,0.7,0.3,1.1c0,0.3-0.1,0.6-0.2,0.9
	C5.9,8.7,5.7,8.9,5.5,9C5.2,9.2,5,9.3,4.7,9.4C4.4,9.5,4.1,9.5,3.8,9.5H0.5V2.7H3.7z M3.5,5.4c0.3,0,0.5-0.1,0.7-0.2
	c0.2-0.1,0.2-0.3,0.2-0.6c0-0.1,0-0.3-0.1-0.4S4.2,4.1,4.1,4C4,3.9,3.9,3.9,3.8,3.9c-0.1,0-0.2,0-0.4,0H2v1.6L3.5,5.4L3.5,5.4z
	 M3.6,8.4c0.1,0,0.3,0,0.4,0c0.1,0,0.2-0.1,0.3-0.1C4.5,8.1,4.5,8,4.6,7.9c0-0.1,0.1-0.3,0.1-0.4c0-0.3-0.1-0.6-0.3-0.8
	C4.2,6.5,3.9,6.5,3.6,6.5H2v1.9L3.6,8.4L3.6,8.4z M8.3,8.3c0.2,0.2,0.5,0.3,0.9,0.3c0.3,0,0.5-0.1,0.7-0.2c0.2-0.1,0.3-0.3,0.4-0.4
	h1.2c-0.2,0.6-0.5,1-0.9,1.3c-0.4,0.2-0.9,0.4-1.4,0.4c-0.4,0-0.7-0.1-1.1-0.2C7.8,9.4,7.6,9.2,7.4,8.9C7.1,8.7,7,8.4,6.9,8.1
	C6.7,7.8,6.7,7.4,6.7,7.1c0-0.4,0-0.7,0.2-1C7,5.7,7.2,5.4,7.4,5.2c0.2-0.2,0.5-0.4,0.8-0.5c0.3-0.1,0.7-0.2,1-0.2
	c0.4,0,0.8,0.1,1.1,0.2c0.3,0.2,0.6,0.4,0.8,0.7c0.2,0.3,0.3,0.6,0.4,0.9c0,0.3,0.1,0.7,0,1.1H8C8,7.8,8.1,8.1,8.3,8.3L8.3,8.3z
	 M9.9,5.7C9.7,5.6,9.5,5.5,9.1,5.5c-0.2,0-0.4,0.1-0.5,0.1S8.3,5.8,8.2,5.9C8.2,6,8.1,6.1,8.1,6.2c0,0.1,0,0.2,0,0.3h2.2
	C10.2,6.2,10.1,5.9,9.9,5.7z M7.7,3.1h2.8v0.7H7.7L7.7,3.1L7.7,3.1z"/>
</svg>
