<?xml version="1.0" encoding="utf-8"?>
<!-- Generator: Adobe Illustrator 25.0.0, SVG Export Plug-In . SVG Version: 6.00 Build 0)  -->
<svg version="1.1" id="Layer_1" xmlns="http://www.w3.org/2000/svg" xmlns:xlink="http://www.w3.org/1999/xlink" x="0px" y="0px"
	 viewBox="0 0 12 12" style="enable-background:new 0 0 12 12;" xml:space="preserve">
<style type="text/css">
	.st0{fill:#FFFFFF;}
</style>
<path class="st0" d="M9.4,2.7L8.7,3.2L6,5.2l-2.7-2L2.6,2.7C2.2,2.3,1.6,2.4,1.2,2.8C1.1,3,1,3.3,1,3.5v5.8C1,9.7,1.3,10,1.7,10
	c0,0,0,0,0,0h1.6V6.1l2.7,2l2.7-2V10h1.6c0.4,0,0.7-0.3,0.7-0.7V3.5c0-0.6-0.4-1-1-1C9.8,2.5,9.6,2.5,9.4,2.7z"/>
</svg>
